<svg xmlns="http://www.w3.org/2000/svg" viewBox="0 0 64 64"><g id="Layer_28" data-name="Layer 28"><path d="M26.39,2.5H8A1.5,1.5,0,0,0,6.5,4V60A1.5,1.5,0,0,0,8,61.5H26.39a1.5,1.5,0,0,0,1.5-1.5V4A1.5,1.5,0,0,0,26.39,2.5Zm-1.5,56H9.5V55.33h7.13a1.5,1.5,0,0,0,0-3H9.5V49.09h3.08a1.5,1.5,0,0,0,0-3H9.5V42.86h7.13a1.5,1.5,0,0,0,0-3H9.5V36.62h3.08a1.5,1.5,0,0,0,0-3H9.5V30.38h7.13a1.5,1.5,0,0,0,0-3H9.5V24.14h3.08a1.5,1.5,0,0,0,0-3H9.5V17.91h7.13a1.5,1.5,0,0,0,0-3H9.5V11.67h3.08a1.5,1.5,0,0,0,0-3H9.5V5.5H24.89Z" id="id_101" style="fill: rgb(255, 255, 255);"></path><path d="M46.8,2.5A10.7,10.7,0,0,0,36.11,13.2c0,2.17,0,7,0,9.19V44a1.47,1.47,0,0,0,.17.69c0,.09,9.23,16,9.22,16.06a1.52,1.52,0,0,0,1.3.75,1.5,1.5,0,0,0,1.3-.75c0-.06,9.22-16,9.22-16.06A1.48,1.48,0,0,0,57.5,44V22.39c0-2.19,0-7,0-9.19A10.71,10.71,0,0,0,46.8,2.5Zm4.85,40V23.89H54.5V42.5Zm-6.46,0V23.89h3.46V42.5Zm-6.08,0V23.89h3.08V42.5Zm0-24H54.5v2.39H39.11Zm7.69-13a7.7,7.7,0,0,1,7.7,7.7v2.3H39.11V13.2A7.7,7.7,0,0,1,46.8,5.5ZM46.8,57,40.2,45.5H53.41Z" id="id_102" style="fill: rgb(255, 255, 255);"></path></g></svg>