<svg width="64" height="64" viewBox="0 0 64 64" fill="none" xmlns="http://www.w3.org/2000/svg">
<path d="M59.25 51.09L53.94 33C53.8655 32.7521 53.6978 32.5427 53.4722 32.4159C53.2465 32.2891 52.9805 32.2547 52.73 32.32L46.11 34C45.9787 34.0317 45.8551 34.0897 45.7469 34.1705C45.6386 34.2513 45.5478 34.3532 45.48 34.47C45.3502 34.7086 45.318 34.9881 45.39 35.25L45.56 35.83C43.8424 35.7662 42.1583 35.3366 40.62 34.57L36.17 32.32C34.3998 31.4279 32.3614 31.2248 30.45 31.75L26.91 32.7L18.28 33.06L18.46 32.5C18.4999 32.3713 18.5134 32.2359 18.4996 32.1018C18.4859 31.9678 18.4452 31.8379 18.38 31.72C18.3154 31.6034 18.2282 31.5008 18.1234 31.4184C18.0187 31.336 17.8985 31.2753 17.77 31.24L11.18 29.44C10.9307 29.3709 10.6644 29.401 10.4369 29.5241C10.2095 29.6472 10.0385 29.8536 9.95998 30.1L4.75998 46.57C4.68185 46.8293 4.70693 47.1088 4.82998 47.35C4.89461 47.4695 4.98292 47.5746 5.08952 47.6588C5.19612 47.7431 5.31877 47.8047 5.44998 47.84L12 49.64H12.26C12.4806 49.6501 12.6983 49.5869 12.8792 49.4603C13.0601 49.3337 13.194 49.1507 13.26 48.94L15.61 51.94C17.3911 54.2706 19.5511 56.2853 22 57.9L25.76 60.36C26.4621 60.8117 27.288 61.0325 28.1219 60.9912C28.9558 60.95 29.7559 60.6488 30.41 60.13C31.0004 59.6583 31.4245 59.01 31.62 58.28V58.28C32.2685 58.8115 33.0815 59.1013 33.92 59.1C34.4003 59.099 34.8755 59.001 35.3171 58.812C35.7587 58.623 36.1576 58.3468 36.49 58C36.8305 57.6409 37.0867 57.2105 37.24 56.74C37.9815 57.1955 38.8551 57.387 39.7192 57.2835C40.5832 57.1801 41.387 56.7877 42 56.17C42.4596 55.6889 42.7689 55.0842 42.89 54.43C43.6041 54.7686 44.4072 54.8716 45.1837 54.7243C45.9601 54.5769 46.6696 54.1867 47.21 53.61C47.5309 53.2589 47.779 52.8476 47.94 52.4L50.31 52L50.7 53.33C50.7623 53.5444 50.8947 53.7318 51.0759 53.8623C51.2571 53.9928 51.4768 54.0589 51.7 54.05H51.95L58.57 52.37C58.7013 52.3383 58.8248 52.2803 58.9331 52.1995C59.0414 52.1187 59.1322 52.0168 59.2 51.9C59.2611 51.7749 59.297 51.639 59.3056 51.5C59.3141 51.361 59.2953 51.2217 59.25 51.09V51.09ZM6.99998 46.18L11.6 31.61L16.26 32.88L16 33.8L12 46.53L11.71 47.44L6.99998 46.18ZM45.76 52.25C45.4546 52.5606 45.0465 52.7492 44.6121 52.7805C44.1776 52.8118 43.7467 52.6836 43.4 52.42L39.14 49.05C39.0369 48.9686 38.9188 48.9083 38.7924 48.8725C38.666 48.8367 38.5338 48.8262 38.4033 48.8415C38.2728 48.8568 38.1467 48.8977 38.032 48.9618C37.9173 49.0259 37.8164 49.1119 37.735 49.215C37.6536 49.3181 37.5932 49.4362 37.5575 49.5626C37.5217 49.689 37.5112 49.8212 37.5265 49.9517C37.5418 50.0821 37.5827 50.2083 37.6468 50.323C37.7108 50.4377 37.7969 50.5386 37.9 50.62L40.39 52.62C40.5597 52.752 40.6998 52.9181 40.8014 53.1075C40.903 53.297 40.9639 53.5056 40.98 53.72C40.9958 53.9198 40.9683 54.1206 40.8992 54.3088C40.8302 54.4969 40.7213 54.6679 40.58 54.81C40.2485 55.136 39.807 55.326 39.3425 55.3426C38.8779 55.3593 38.4239 55.2014 38.07 54.9L33.95 51.28C33.7522 51.104 33.4928 51.0135 33.2284 51.0285C32.9641 51.0435 32.7165 51.1627 32.54 51.36C32.4519 51.4588 32.3843 51.5741 32.3411 51.6992C32.2979 51.8243 32.28 51.9567 32.2883 52.0888C32.2967 52.2209 32.3312 52.35 32.3899 52.4687C32.4485 52.5873 32.5301 52.6931 32.63 52.78L35 54.82C35.1307 54.93 35.2372 55.0659 35.3129 55.219C35.3887 55.3722 35.4319 55.5393 35.44 55.71C35.4472 55.8761 35.4198 56.0418 35.3595 56.1968C35.2993 56.3517 35.2075 56.4924 35.09 56.61C34.8044 56.889 34.4278 57.0557 34.0292 57.0796C33.6307 57.1035 33.2368 56.9829 32.92 56.74L28.64 53.14C28.4371 52.9689 28.1746 52.8855 27.9101 52.908C27.6457 52.9305 27.401 53.0571 27.23 53.26C27.0589 53.4629 26.9755 53.7254 26.998 53.9899C27.0205 54.2543 27.1471 54.4989 27.35 54.67L29.35 56.33C29.492 56.4677 29.605 56.6324 29.6823 56.8144C29.7596 56.9965 29.7996 57.1922 29.8 57.39C29.7969 57.6209 29.7413 57.8481 29.6374 58.0543C29.5334 58.2605 29.3838 58.4403 29.2 58.58C28.8736 58.8316 28.4775 58.9762 28.0658 58.9941C27.6541 59.012 27.2469 58.9023 26.9 58.68L23.15 56.22C20.8899 54.757 18.8976 52.9169 17.26 50.78L14 46.64L14.5 45.08L17.65 35.08L25.07 34.77L21.51 39.77C20.9924 40.4861 20.7748 41.3761 20.9037 42.2502C21.0326 43.1244 21.4977 43.9137 22.2 44.45C22.9375 45.0299 23.861 45.3213 24.7978 45.2698C25.7346 45.2182 26.6205 44.8273 27.29 44.17L28.89 42.57C29.6301 41.8441 30.5834 41.3745 31.61 41.23C32.2828 41.1272 32.9696 41.1629 33.6282 41.3348C34.2867 41.5068 34.9033 41.8114 35.44 42.23L45.58 50.23C45.734 50.3505 45.8615 50.5015 45.9544 50.6736C46.0473 50.8457 46.1037 51.0351 46.12 51.23C46.1322 51.4172 46.1046 51.6049 46.0391 51.7807C45.9736 51.9564 45.8717 52.1164 45.74 52.25H45.76ZM48 50.37C47.7935 49.7022 47.3889 49.1128 46.84 48.68L36.7 40.68C35.3645 39.6371 33.6961 39.1141 32.0042 39.2078C30.3124 39.3016 28.712 40.0059 27.5 41.19L25.9 42.79C25.5745 43.097 25.1506 43.2785 24.7038 43.3023C24.257 43.3261 23.8163 43.1907 23.46 42.92C23.3068 42.8101 23.1771 42.6706 23.0788 42.5097C22.9804 42.3488 22.9153 42.1699 22.8874 41.9834C22.8594 41.7969 22.8691 41.6067 22.9159 41.4241C22.9628 41.2414 23.0457 41.07 23.16 40.92L27.7 34.56L31 33.67C32.437 33.2743 33.9698 33.4276 35.3 34.1L39.75 36.35C41.7201 37.34 43.8951 37.8537 46.1 37.85H46.19L49.77 50.07L48 50.37ZM52.38 51.85L52 50.59L47.86 36.54L47.6 35.67L52.29 34.48L57 50.66L52.38 51.85Z" fill="#ffffff" id="id_101"></path>
<path d="M21.0599 23.55C22.4416 25.0942 24.1343 26.3287 26.0268 27.1723C27.9194 28.0159 29.9691 28.4496 32.0411 28.4449C34.1132 28.4402 36.1609 27.9971 38.0496 27.1449C39.9383 26.2927 41.6254 25.0505 42.9999 23.5C43.0657 23.4197 43.1227 23.3325 43.1699 23.24C43.2565 23.038 43.2741 22.813 43.2199 22.6C42.7722 20.7407 41.8686 19.0221 40.5907 17.5992C39.3127 16.1764 37.7007 15.0941 35.8999 14.45C36.956 13.6376 37.7313 12.515 38.1169 11.2396C38.5025 9.96421 38.4792 8.6001 38.0501 7.33867C37.6211 6.07723 36.8079 4.98178 35.7246 4.20601C34.6413 3.43024 33.3423 3.01309 32.0099 3.01309C30.6775 3.01309 29.3786 3.43024 28.2953 4.20601C27.212 4.98178 26.3988 6.07723 25.9698 7.33867C25.5407 8.6001 25.5174 9.96421 25.903 11.2396C26.2886 12.515 27.0638 13.6376 28.1199 14.45C26.3329 15.0845 24.7309 16.1518 23.4571 17.5565C22.1832 18.9613 21.2772 20.6597 20.8199 22.5C20.7452 22.7137 20.7452 22.9463 20.8199 23.16C20.8687 23.3068 20.9508 23.4403 21.0599 23.55ZM27.6099 9.39C27.6099 8.52174 27.8674 7.67298 28.3498 6.95105C28.8322 6.22911 29.5178 5.66644 30.32 5.33417C31.1221 5.0019 32.0048 4.91496 32.8564 5.08435C33.708 5.25374 34.4902 5.67185 35.1041 6.2858C35.7181 6.89975 36.1362 7.68198 36.3056 8.53355C36.475 9.38513 36.388 10.2678 36.0558 11.07C35.7235 11.8721 35.1608 12.5578 34.4389 13.0402C33.717 13.5225 32.8682 13.78 31.9999 13.78V13.78C30.8356 13.78 29.719 13.3175 28.8957 12.4942C28.0725 11.6709 27.6099 10.5543 27.6099 9.39V9.39ZM31.9999 15.78C34.044 15.7821 36.0329 16.4427 37.672 17.6639C39.3111 18.8852 40.5132 20.602 41.0999 22.56C39.9171 23.7873 38.4989 24.7636 36.9302 25.4304C35.3615 26.0972 33.6745 26.4408 31.9699 26.4408C30.2654 26.4408 28.5784 26.0972 27.0097 25.4304C25.4409 24.7636 24.0228 23.7873 22.8399 22.56C23.4325 20.5938 24.6443 18.8717 26.2948 17.65C27.9454 16.4283 29.9464 15.7724 31.9999 15.78V15.78Z" fill="#ffffff" id="id_102"></path>
</svg>