<?xml version="1.0" standalone="no"?>
<!DOCTYPE svg PUBLIC "-//W3C//DTD SVG 20010904//EN"
 "http://www.w3.org/TR/2001/REC-SVG-20010904/DTD/svg10.dtd">
<svg version="1.0" xmlns="http://www.w3.org/2000/svg"
 width="1000.000000pt" height="1000.000000pt" viewBox="0 0 1000.000000 1000.000000"
 preserveAspectRatio="xMidYMid meet">
<metadata>
Created by potrace 1.14, written by Peter Selinger 2001-2017
</metadata>
<g transform="translate(0.000000,1000.000000) scale(0.100000,-0.100000)"
fill="#000000" stroke="none">
<path d="M4619 7128 c-1 -30 -1 -1737 0 -1763 1 -18 7 -20 69 -19 37 1 72 2
78 3 9 1 12 135 12 514 1 281 1 541 2 577 2 70 3 68 34 -40 15 -54 28 -101
157 -597 35 -134 66 -237 70 -230 4 6 60 217 125 469 65 251 121 455 124 453
3 -2 5 -260 5 -574 0 -314 2 -572 5 -572 26 -6 143 -3 147 4 4 7 7 1447 4
1745 l-1 52 -64 0 c-36 0 -67 -4 -70 -8 -3 -5 -16 -58 -30 -118 -26 -112 -51
-222 -105 -451 -17 -72 -32 -142 -35 -155 -12 -62 -96 -406 -103 -426 -7 -18
-27 56 -87 315 -43 186 -80 347 -82 358 -2 11 -28 124 -57 250 l-53 230 -72 3
c-69 3 -72 2 -73 -20z"/>
<path d="M3979 6806 c-2 -2 -42 -7 -89 -10 -94 -7 -179 -15 -225 -21 -16 -2
-34 -4 -38 -4 -5 -1 -6 -22 -3 -48 3 -27 8 -84 11 -128 3 -44 8 -91 10 -105 2
-14 6 -61 10 -105 3 -44 8 -91 10 -105 2 -14 6 -56 10 -95 3 -38 8 -92 11
-120 3 -27 6 -70 8 -95 4 -47 14 -158 21 -225 2 -22 7 -71 10 -110 7 -83 12
-136 21 -230 4 -38 8 -81 9 -95 1 -23 5 -25 56 -26 70 -1 104 9 103 29 -1 9
-5 61 -9 114 -4 54 -8 104 -10 113 -1 8 -6 53 -10 100 -8 102 -13 162 -20 215
-16 144 -17 202 -2 208 32 12 162 2 199 -16 54 -27 64 -59 83 -262 8 -88 16
-169 20 -210 2 -22 7 -71 11 -110 3 -38 7 -85 9 -104 4 -44 14 -49 78 -40 28
4 60 8 71 8 17 1 18 8 12 84 -4 45 -8 100 -11 122 -2 22 -7 69 -10 105 -7 84
-15 167 -20 205 -2 17 -7 57 -11 90 -11 97 -31 122 -133 170 l-45 21 47 28
c51 29 96 87 99 126 1 14 -2 63 -6 110 -24 272 -30 306 -64 344 -27 29 -87 55
-144 62 -29 4 -56 8 -59 10 -3 2 -8 2 -10 0z m57 -98 c22 -22 25 -35 39 -158
24 -220 24 -310 0 -346 -21 -32 -90 -63 -153 -70 -26 -3 -52 -7 -59 -9 -22 -7
-23 -2 -48 286 -4 41 -8 88 -10 104 -2 17 -7 71 -11 122 l-7 92 39 4 c22 3 72
3 113 2 62 -3 78 -8 97 -27z"/>
<path d="M5978 6800 c-80 -24 -130 -74 -142 -145 -8 -45 -16 -114 -21 -180 -3
-38 -8 -86 -10 -105 -3 -19 -7 -66 -11 -105 -3 -38 -7 -86 -9 -105 -2 -19 -6
-69 -10 -110 -3 -41 -8 -91 -10 -110 -2 -19 -7 -66 -10 -105 -3 -38 -8 -88
-10 -110 -2 -22 -7 -71 -10 -110 -3 -38 -8 -84 -10 -102 -7 -49 -16 -183 -13
-183 2 -1 38 -3 81 -7 l77 -6 1 29 c0 16 2 36 3 44 2 8 7 51 10 95 4 44 9 96
11 115 2 19 6 69 10 110 3 41 8 91 10 110 2 19 7 64 10 100 3 36 8 86 11 113
l6 47 41 -5 c23 -2 74 -7 112 -10 86 -7 126 -14 121 -23 -2 -4 -7 -43 -11 -87
-4 -44 -8 -91 -10 -105 -1 -14 -6 -68 -10 -120 -4 -52 -9 -102 -10 -110 -2 -8
-6 -53 -10 -99 -4 -47 -8 -92 -10 -102 -2 -9 -5 -41 -6 -70 l-3 -53 34 -8 c33
-6 92 -11 116 -9 6 1 12 22 13 49 1 26 4 61 6 77 3 17 7 64 10 105 3 41 8 93
11 114 3 22 7 60 9 85 2 25 6 75 10 111 10 112 14 153 20 230 3 41 8 86 10
100 2 14 6 63 10 110 3 47 8 96 10 110 5 36 17 190 18 225 1 103 -70 176 -195
200 -53 10 -220 14 -250 5z m193 -52 c28 -5 56 -19 70 -34 26 -28 29 -69 15
-209 -3 -38 -9 -95 -11 -125 -21 -259 -15 -241 -83 -235 -231 20 -214 12 -207
104 4 42 8 90 10 106 2 17 8 89 15 160 14 150 22 184 53 213 33 30 66 35 138
20z"/>
<path d="M2865 6655 c-89 -26 -129 -50 -169 -98 -27 -33 -31 -48 -33 -101 -1
-35 3 -83 7 -107 17 -88 39 -205 45 -239 4 -19 13 -71 21 -115 7 -44 16 -93
19 -110 3 -16 8 -41 10 -55 3 -14 8 -38 10 -55 3 -16 8 -41 10 -55 13 -62 16
-79 25 -135 5 -33 12 -71 15 -85 8 -39 27 -142 32 -175 17 -102 99 -158 230
-157 79 1 209 32 258 62 38 24 78 67 92 101 11 25 10 104 -1 162 -3 15 -10 53
-16 85 -6 31 -12 68 -15 82 -3 14 -8 39 -10 55 -13 73 -25 142 -30 165 -3 14
-8 39 -10 55 -18 100 -29 160 -40 215 -2 14 -7 39 -10 55 -30 179 -66 347 -79
373 -50 96 -190 126 -361 77z m184 -59 c18 -16 36 -67 46 -131 2 -16 9 -55 15
-85 6 -30 13 -66 15 -80 2 -14 17 -99 34 -190 43 -234 55 -305 66 -370 4 -19
15 -80 25 -135 11 -55 22 -116 25 -135 3 -19 9 -48 14 -65 12 -47 6 -103 -13
-124 -22 -24 -97 -51 -141 -51 -18 0 -47 10 -66 23 -40 27 -44 39 -90 302 -17
99 -33 189 -36 200 -15 75 -22 116 -28 155 -4 25 -15 88 -25 140 -10 52 -21
111 -24 130 -7 40 -9 56 -36 200 -24 128 -25 149 -4 179 40 57 176 79 223 37z"/>
<path d="M6968 6670 c-45 -13 -84 -41 -104 -74 -19 -32 -26 -53 -44 -141 -22
-102 -25 -132 -25 -225 0 -115 4 -122 128 -280 102 -129 145 -194 153 -230 18
-88 15 -148 -21 -345 -16 -85 -34 -124 -64 -139 -54 -28 -173 -1 -206 48 -20
27 -19 61 5 191 19 110 18 123 -15 126 -5 0 -18 2 -27 4 -9 2 -35 6 -56 9 -39
5 -40 5 -47 -32 -39 -200 -35 -255 22 -314 50 -52 169 -93 298 -101 135 -8
219 45 240 152 2 9 11 57 20 106 23 119 27 187 14 260 -15 86 -47 142 -152
268 -155 185 -161 208 -118 434 33 171 47 205 91 223 59 25 163 -5 197 -56 15
-24 15 -34 4 -113 -8 -47 -15 -104 -18 -127 l-4 -41 70 -11 c82 -14 92 -14 89
-4 -1 4 4 39 10 77 26 145 21 185 -29 235 -40 39 -89 64 -166 84 -71 19 -206
27 -245 16z"/>
<path d="M7791 6489 c-6 -18 -11 -33 -11 -35 0 -3 32 -13 142 -44 75 -22 76
-23 68 -49 -14 -43 -188 -667 -195 -701 -3 -11 -148 -536 -172 -621 -4 -13 7
-21 44 -33 26 -8 62 -18 79 -21 l31 -5 32 117 c18 63 34 123 36 132 2 9 17 63
34 121 17 58 85 303 151 545 67 242 123 441 125 443 2 3 54 -8 114 -24 60 -16
112 -26 114 -24 2 3 7 20 10 37 6 30 4 33 -21 39 -15 4 -148 40 -297 80 -148
41 -270 74 -271 74 -1 0 -7 -14 -13 -31z"/>
<path d="M2030 6467 c-3 -3 -21 -8 -40 -11 -168 -26 -284 -124 -282 -235 1
-38 137 -556 227 -866 8 -27 29 -102 46 -165 36 -134 59 -173 116 -201 64 -31
146 -30 278 4 84 22 165 81 195 141 24 51 23 98 -4 191 -8 28 -38 133 -66 235
-27 102 -56 208 -64 235 -8 28 -31 109 -50 180 -36 127 -44 158 -85 300 -26
89 -64 148 -110 170 -35 17 -151 33 -161 22z m47 -78 c28 -15 39 -47 122 -349
121 -438 131 -474 162 -580 7 -25 13 -50 15 -55 1 -6 16 -62 34 -125 18 -63
33 -126 33 -140 -1 -36 -63 -86 -124 -99 -72 -16 -123 6 -143 62 -15 39 -78
263 -124 437 -11 41 -39 142 -62 224 -22 81 -47 171 -55 200 -7 28 -27 98 -43
156 -44 152 -46 172 -28 209 32 62 147 94 213 60z"/>
<path d="M8715 6237 c-3 -7 -50 -133 -106 -282 -55 -148 -102 -277 -104 -285
-3 -12 -167 -454 -285 -767 -19 -52 -19 -53 0 -63 32 -17 401 -150 416 -150
16 0 37 47 30 65 -2 6 -62 33 -133 58 -70 26 -133 51 -139 55 -7 5 12 68 58
192 37 102 89 241 114 310 25 69 48 128 52 132 4 3 34 -4 67 -17 33 -13 90
-34 127 -48 l67 -25 14 37 c9 20 12 39 8 43 -4 4 -61 28 -126 52 -99 36 -119
47 -117 63 12 66 183 503 198 503 6 0 65 -20 131 -45 65 -25 125 -45 135 -45
13 0 44 57 35 66 -3 3 -282 108 -370 139 -49 18 -69 21 -72 12z"/>
<path d="M242 6100 c-134 -66 -241 -123 -239 -127 3 -4 27 -55 55 -113 68
-143 165 -345 252 -525 40 -82 99 -206 132 -275 86 -178 164 -341 252 -522 41
-87 80 -158 86 -158 17 0 160 72 160 80 0 5 -37 84 -81 177 -45 92 -100 209
-124 258 -23 50 -72 151 -108 226 -36 74 -67 141 -69 147 -3 14 27 32 175 103
59 28 107 57 107 64 0 22 -31 75 -45 75 -7 0 -66 -26 -131 -59 -172 -84 -158
-84 -193 -9 -40 86 -196 412 -226 471 -14 27 -25 54 -25 60 0 7 70 45 156 86
85 41 157 78 159 82 8 12 -25 79 -38 78 -6 0 -121 -54 -255 -119z"/>
<path d="M940 6106 c-43 -18 -54 -27 -52 -42 2 -10 28 -82 57 -159 28 -77 141
-378 250 -670 109 -291 203 -535 209 -542 8 -8 60 7 205 63 107 41 196 76 198
78 2 2 -3 20 -11 40 -14 34 -16 35 -43 25 -70 -27 -216 -79 -222 -79 -4 0
-117 295 -251 655 -274 732 -241 671 -340 631z"/>
<path d="M9392 5663 c-260 -532 -522 -1072 -522 -1078 0 -4 131 -65 140 -65 4
0 16 17 25 38 10 20 65 134 123 252 57 118 124 256 149 307 44 92 44 92 71 80
74 -32 132 -78 156 -125 23 -45 14 -74 -96 -300 -140 -290 -179 -374 -176
-377 9 -9 127 -65 136 -65 15 0 287 555 296 604 6 36 -9 84 -44 139 -16 26
-30 49 -30 50 0 1 25 3 57 4 64 2 121 24 144 56 8 12 51 96 94 187 93 193 99
229 51 299 -16 23 -50 57 -75 75 -43 32 -341 186 -359 186 -5 0 -67 -120 -140
-267z m311 121 c72 -37 133 -82 144 -107 15 -32 -5 -85 -100 -272 -93 -182
-116 -206 -191 -200 -45 4 -114 28 -153 52 l-21 14 47 97 c26 53 85 175 131
270 46 94 85 172 87 172 2 0 27 -12 56 -26z"/>
<path d="M4597 4674 c-11 -22 -29 -40 -47 -47 -17 -6 -30 -14 -30 -17 0 -16
62 -62 125 -94 58 -29 97 -61 228 -193 l158 -159 -163 -164 c-135 -136 -174
-169 -230 -196 -60 -30 -118 -77 -118 -96 0 -5 9 -8 19 -8 18 0 40 -22 67 -66
11 -18 13 -18 39 6 14 14 42 57 60 95 29 59 59 95 197 233 l163 162 166 -167
c136 -137 171 -179 193 -228 26 -57 70 -115 88 -115 5 0 14 13 19 29 7 18 24
36 45 46 31 14 34 19 22 33 -22 29 -41 42 -111 77 -56 28 -97 63 -229 196
l-161 161 164 165 c143 143 173 168 235 197 38 18 80 46 93 61 l22 29 -33 16
c-19 8 -40 29 -49 48 l-15 33 -32 -33 c-18 -18 -46 -60 -61 -93 -23 -47 -60
-92 -173 -205 -80 -80 -154 -153 -166 -163 -20 -19 -22 -17 -182 142 -134 133
-168 173 -195 229 -18 37 -46 79 -62 95 l-29 27 -17 -36z"/>
<path d="M2256 4129 c1 -17 5 -33 8 -37 7 -6 1861 -11 1889 -4 12 3 17 14 17
38 l0 34 -958 0 -958 0 2 -31z"/>
<path d="M5953 4112 c-15 -15 -16 -23 -7 -46 6 -14 99 -16 960 -16 l954 0 0
35 c0 26 -4 35 -17 36 -10 0 -436 1 -947 2 -759 2 -932 0 -943 -11z"/>
<path d="M7567 3285 c-48 -45 -28 -61 30 -25 22 13 31 25 27 35 -9 22 -25 19
-57 -10z"/>
<path d="M4065 3220 c-92 -14 -155 -86 -155 -178 0 -88 31 -139 105 -173 51
-24 109 -24 161 0 l41 18 1 72 c2 82 -5 90 -81 86 -54 -3 -62 -7 -54 -30 4
-10 20 -15 47 -15 l40 0 0 -44 c0 -39 -3 -45 -27 -53 -67 -23 -141 7 -172 69
-51 104 31 222 143 203 70 -11 80 -11 84 6 5 29 -66 50 -133 39z"/>
<path d="M6547 3217 c-110 -27 -163 -187 -94 -287 51 -76 139 -101 219 -61
101 49 132 194 61 289 -38 51 -117 76 -186 59z m134 -73 c67 -65 51 -196 -30
-235 -66 -31 -133 -7 -165 59 -38 78 -1 186 69 205 42 12 97 -1 126 -29z"/>
<path d="M7973 3216 c-45 -15 -64 -37 -70 -82 -7 -55 21 -87 99 -113 93 -32
121 -67 80 -104 -33 -30 -80 -30 -129 -1 -33 19 -48 23 -56 15 -27 -27 51 -81
116 -81 95 0 152 63 126 139 -11 30 -41 49 -123 79 -27 9 -55 27 -63 39 -14
20 -13 24 11 48 31 31 78 33 122 6 33 -20 61 -14 51 12 -14 38 -108 62 -164
43z"/>
<path d="M2019 3198 c-4 -64 -4 -305 -1 -320 2 -10 13 -18 23 -18 17 0 19 11
21 132 l3 132 44 -69 c43 -67 67 -95 82 -95 3 0 28 34 55 75 27 41 52 75 56
75 3 0 7 -55 7 -122 2 -126 8 -150 32 -125 11 11 14 49 13 178 -2 194 0 179
-19 179 -8 0 -43 -43 -77 -95 -35 -52 -67 -93 -72 -92 -5 2 -36 43 -70 92 -63
92 -95 116 -97 73z"/>
<path d="M2603 3203 c-13 -28 -8 -334 6 -342 6 -4 55 -7 109 -6 90 0 97 2 97
20 0 18 -8 20 -73 21 -100 3 -100 3 -99 66 l2 53 75 5 c61 4 75 8 78 23 4 18
-11 21 -105 18 -24 0 -44 3 -44 7 -16 102 -12 108 82 109 86 1 95 4 86 28 -5
12 -25 15 -106 15 -86 0 -101 -3 -108 -17z"/>
<path d="M3051 3198 c-10 -29 -8 -324 3 -335 4 -4 50 -8 102 -9 70 -1 97 3
106 13 15 18 -6 34 -42 32 -14 -1 -49 -1 -78 -1 l-52 2 1 148 c2 82 -1 154 -5
160 -11 19 -26 14 -35 -10z"/>
<path d="M3487 3213 c-10 -9 -9 -353 1 -354 26 -4 190 -5 205 -1 17 4 24 30
10 34 -5 0 -43 2 -87 3 -45 2 -81 8 -85 14 -6 10 -7 43 -2 99 1 8 22 12 71 12
54 0 72 4 77 15 9 25 -4 30 -72 28 -36 -1 -67 3 -71 8 -3 5 -7 28 -8 50 -4 51
10 59 98 57 70 -1 105 14 76 32 -17 11 -203 14 -213 3z"/>
<path d="M4447 3193 c-3 -15 -6 -94 -5 -176 0 -172 -5 -165 108 -162 135 3
165 26 161 120 -1 18 -12 39 -28 53 -25 22 -25 24 -7 43 25 28 22 96 -6 123
-17 18 -35 22 -119 24 l-99 4 -5 -29z m165 -22 c21 -3 39 -36 33 -60 -9 -36
-21 -41 -92 -41 l-63 0 0 49 c0 31 5 51 13 54 10 3 80 2 109 -2z m6 -150 c20
-2 51 -38 47 -58 -2 -10 -4 -23 -4 -30 -2 -27 -44 -37 -138 -34 l-33 1 0 59
c0 70 -1 70 128 62z"/>
<path d="M4938 3203 c-11 -43 -1 -249 13 -278 32 -67 117 -93 188 -57 55 27
71 71 72 193 1 161 1 161 -18 157 -16 -3 -19 -20 -23 -135 -5 -125 -6 -134
-30 -158 -37 -36 -92 -37 -128 -1 -26 25 -27 32 -32 159 -4 111 -8 132 -21
135 -9 2 -18 -5 -21 -15z"/>
<path d="M5463 3208 c-5 -7 -9 -87 -9 -178 1 -163 1 -165 24 -168 21 -3 22 0
22 67 0 71 0 71 28 72 102 4 136 -11 140 -62 4 -51 11 -67 32 -74 32 -10 42 3
25 35 -8 16 -15 39 -15 52 0 13 -7 34 -16 46 -14 20 -14 24 5 51 23 31 28 90
11 122 -19 35 -64 49 -153 49 -56 0 -88 -4 -94 -12z m190 -46 c22 -18 26 -52
10 -84 -15 -32 -39 -40 -108 -36 l-50 3 -1 60 c-1 33 0 63 3 67 7 12 129 4
146 -10z"/>
<path d="M5967 3213 c-4 -3 -7 -84 -7 -180 0 -166 1 -173 20 -173 23 0 22 -1
24 63 2 38 8 53 32 78 l30 30 72 -90 c49 -62 77 -89 87 -85 25 10 18 28 -50
114 -36 46 -65 86 -65 90 0 4 29 36 65 70 49 49 62 67 53 77 -6 7 -13 13 -17
13 -3 0 -49 -41 -100 -90 -52 -49 -98 -85 -101 -80 -3 5 -5 40 -4 77 1 76 -15
111 -39 86z"/>
<path d="M6997 3213 c-2 -5 -5 -83 -6 -175 -1 -125 2 -169 11 -175 18 -11 179
-11 201 -1 14 7 16 13 7 23 -7 9 -35 13 -86 13 -41 0 -78 2 -81 5 -3 4 -5 70
-5 149 0 132 -6 168 -29 168 -4 0 -10 -3 -12 -7z"/>
<path d="M7533 3208 c-21 -33 -140 -333 -136 -344 8 -23 35 -2 54 42 l18 44
80 0 79 0 21 -44 c24 -52 36 -62 49 -40 7 12 -9 60 -56 173 -78 187 -87 202
-109 169z m45 -138 c13 -33 22 -63 20 -67 -2 -5 -25 -8 -53 -7 -38 0 -49 4
-47 15 5 28 44 119 51 119 3 0 17 -27 29 -60z"/>
</g>
</svg>
